<svg id="logo" xmlns="http://www.w3.org/2000/svg" width="40" height="40" viewBox="0 0 40 40">
  <g id="Path_1" data-name="Path 1" fill="#3b0019">
    <path d="M 36 38.5 L 4 38.5 C 2.621500015258789 38.5 1.5 37.37850189208984 1.5 36 L 1.5 4 C 1.5 2.621500015258789 2.621500015258789 1.5 4 1.5 L 36 1.5 C 37.37850189208984 1.5 38.5 2.621500015258789 38.5 4 L 38.5 36 C 38.5 37.37850189208984 37.37850189208984 38.5 36 38.5 Z" stroke="none"/>
    <path d="M 4 3 C 3.448600769042969 3 3 3.448600769042969 3 4 L 3 36 C 3 36.55139923095703 3.448600769042969 37 4 37 L 36 37 C 36.55139923095703 37 37 36.55139923095703 37 36 L 37 4 C 37 3.448600769042969 36.55139923095703 3 36 3 L 4 3 M 4 0 L 36 0 C 38.20914077758789 0 40 1.790859222412109 40 4 L 40 36 C 40 38.20914077758789 38.20914077758789 40 36 40 L 4 40 C 1.790859222412109 40 0 38.20914077758789 0 36 L 0 4 C 0 1.790859222412109 1.790859222412109 0 4 0 Z" stroke="none" fill="#ff006c"/>
  </g>
  <text id="M" transform="translate(11 28)" fill="#f7fff7" font-size="20" font-family="HelveticaNeue-Bold, Helvetica Neue" font-weight="700"><tspan x="0" y="0">M</tspan></text>
</svg>
