<svg id="logo" xmlns="http://www.w3.org/2000/svg" width="40" height="40" viewBox="0 0 40 40">
  <g id="Path_1" data-name="Path 1" fill="none">
    <path d="M4,0H36a4,4,0,0,1,4,4V36a4,4,0,0,1-4,4H4a4,4,0,0,1-4-4V4A4,4,0,0,1,4,0Z" stroke="none"/>
    <path d="M 4 2 C 2.897201538085938 2 2 2.897201538085938 2 4 L 2 36 C 2 37.10279846191406 2.897201538085938 38 4 38 L 36 38 C 37.10279846191406 38 38 37.10279846191406 38 36 L 38 4 C 38 2.897201538085938 37.10279846191406 2 36 2 L 4 2 M 4 0 L 36 0 C 38.20914077758789 0 40 1.790859222412109 40 4 L 40 36 C 40 38.20914077758789 38.20914077758789 40 36 40 L 4 40 C 1.790859222412109 40 0 38.20914077758789 0 36 L 0 4 C 0 1.790859222412109 1.790859222412109 0 4 0 Z" stroke="none" fill="#2c2c2c"/>
  </g>
  <text id="M" transform="translate(11 28)" fill="#2c2c2c" font-size="20" font-family="HelveticaNeue, Helvetica Neue"><tspan x="0" y="0">M</tspan></text>
</svg>
